<svg width="40" height="40" viewBox="0 0 40 40" fill="none" xmlns="http://www.w3.org/2000/svg">
<path d="M12.501 16.9348L20.2353 9.11042L27.9728 16.9412L32.4706 12.386L20.2353 0L8 12.3828L12.501 16.9348Z" fill="#F3BA2F"/>
<path d="M0 20.2388L4.70424 15.5312L9.41177 20.2388L4.70424 24.943L0 20.2388Z" fill="#F3BA2F"/>
<path d="M12.5004 23.0657L20.2337 30.8962L27.9702 23.0625L32.4706 27.6131L20.2369 40.0037L8 27.6226L12.5004 23.0657Z" fill="#F3BA2F"/>
<path d="M30.5859 20.2371L35.2902 15.5312L39.9977 20.2338L35.2902 24.943L30.5859 20.2371Z" fill="#F3BA2F"/>
<path d="M24.943 20.2436L20.2371 15.5312L16.7572 19.0136L16.355 19.4128L15.5312 20.2371L20.2371 24.943L24.943 20.2469V20.2436Z" fill="#F3BA2F"/>
</svg>
