<svg width="13" height="12" viewBox="0 0 13 12" fill="none" xmlns="http://www.w3.org/2000/svg">
<path d="M11.4067 1.96896C10.6367 3.88896 8.70672 6.49896 7.09172 7.79396L6.10672 8.58396C5.98172 8.67396 5.85672 8.75396 5.71672 8.80896C5.71672 8.71896 5.71172 8.61896 5.69672 8.52396C5.64172 8.10396 5.45172 7.71396 5.11672 7.37896C4.77672 7.03896 4.36172 6.83896 3.93672 6.78396C3.83672 6.77896 3.73672 6.76896 3.63672 6.77896C3.69172 6.62396 3.77672 6.47896 3.88172 6.35896L4.66172 5.37396C5.95172 3.75896 8.57172 1.81896 10.4867 1.05396C10.7817 0.943962 11.0667 1.02396 11.2467 1.20896C11.4367 1.39396 11.5267 1.67896 11.4067 1.96896Z" stroke="white" stroke-linecap="round" stroke-linejoin="round"/>
<path d="M5.71465 8.80942C5.71465 9.35942 5.50465 9.88441 5.10965 10.2844C4.80465 10.5894 4.38965 10.7994 3.89465 10.8644L2.66465 10.9994C1.99465 11.0744 1.41965 10.5044 1.49965 9.82441L1.63465 8.59441C1.75465 7.49941 2.66965 6.79941 3.63965 6.77941C3.73965 6.77441 3.84465 6.77941 3.93965 6.78441C4.36465 6.83941 4.77965 7.03441 5.11965 7.37941C5.45465 7.71441 5.64465 8.10441 5.69965 8.52441C5.70465 8.61941 5.71465 8.71442 5.71465 8.80942Z" stroke="white" stroke-linecap="round" stroke-linejoin="round"/>
<path d="M7.61891 7.23609C7.61891 5.93109 6.55891 4.87109 5.25391 4.87109" stroke="white" stroke-linecap="round" stroke-linejoin="round"/>
</svg>
