<svg width="12" height="13" viewBox="0 0 12 13" fill="none" xmlns="http://www.w3.org/2000/svg">
<path d="M4.33594 7.66687C4.33594 8.31187 4.83094 8.83187 5.44594 8.83187H6.70094C7.23594 8.83187 7.67094 8.37687 7.67094 7.81687C7.67094 7.20687 7.40594 6.99187 7.01094 6.85187L4.99594 6.15188C4.60094 6.01188 4.33594 5.79687 4.33594 5.18687C4.33594 4.62687 4.77094 4.17188 5.30594 4.17188H6.56094C7.17594 4.17188 7.67094 4.69187 7.67094 5.33687" stroke="white" stroke-linecap="round" stroke-linejoin="round"/>
<path d="M6 3.5V9.5" stroke="white" stroke-linecap="round" stroke-linejoin="round"/>
<path d="M6 11.5C8.76142 11.5 11 9.26142 11 6.5C11 3.73858 8.76142 1.5 6 1.5C3.23858 1.5 1 3.73858 1 6.5C1 9.26142 3.23858 11.5 6 11.5Z" stroke="white" stroke-linecap="round" stroke-linejoin="round"/>
</svg>
