<svg width="40" height="40" viewBox="0 0 40 40" fill="none" xmlns="http://www.w3.org/2000/svg">
<circle cx="20.5" cy="19.5" r="15.5" fill="white"/>
<path fill-rule="evenodd" clip-rule="evenodd" d="M20 40C8.95375 40 0 31.0462 0 20C0 8.95375 8.95375 0 20 0C31.0462 0 40 8.95375 40 20C40 31.0462 31.0462 40 20 40ZM29.9925 20.2738L20.6225 5L11.25 20.275L20.6225 25.7162L29.9925 20.2738ZM30 22.02L20.6225 27.4587L11.25 22.0213L20.6225 34.9938L30 22.02Z" fill="#627EEA"/>
<path d="M20.625 5V16.0875L29.9963 20.275L20.625 5ZM20.625 27.46V34.9937L30.0025 22.02L20.625 27.46Z" fill="#627EEA" fill-opacity="0.3"/>
<path d="M20.625 25.72L29.9963 20.2787L20.625 16.0938V25.72Z" fill="#627EEA" fill-opacity="0.79"/>
<path d="M11.25 20.2787L20.6225 25.72V16.0938L11.25 20.2787Z" fill="#D0D9F9"/>
</svg>
