<svg width="28" height="26" viewBox="0 0 28 26" fill="none" xmlns="http://www.w3.org/2000/svg">
<path fill-rule="evenodd" clip-rule="evenodd" d="M21.3738 7.63149L20.1129 8.89787C22.6172 10.4946 24.521 12.6323 25.3151 13.5997C23.9673 15.2452 19.4178 20.2717 14.1427 20.2717C12.6278 20.2717 11.1713 19.8551 9.83285 19.2226L8.53368 20.5274C10.2215 21.4052 12.12 22.0123 14.1427 22.0123C21.2887 22.0123 26.8839 14.4352 27.1187 14.1129C27.3414 13.8068 27.3414 13.3914 27.1187 13.0856C26.9726 12.8849 24.7519 9.87648 21.3738 7.63149ZM2.53408 24.894C2.30129 25.0557 1.97963 25.0324 1.77238 24.8243C1.53908 24.5899 1.53908 24.2101 1.77238 23.9757L6.46601 19.2617C3.33926 17.0586 1.30622 14.3044 1.1668 14.1126C0.944399 13.8065 0.944399 13.3914 1.1668 13.0853C1.40137 12.763 6.99675 5.18594 14.1427 5.18594C15.9677 5.18594 17.6915 5.68011 19.2507 6.42143L24.4737 1.17574C24.707 0.941421 25.0853 0.941421 25.3186 1.17574C25.5082 1.36624 25.5437 1.65298 25.4249 1.87948C25.3957 1.89979 25.3678 1.92302 25.3418 1.94917L2.64048 24.7492C2.59686 24.793 2.56139 24.8419 2.53408 24.894ZM11.1686 17.8811C12.0119 18.474 13.0377 18.8221 14.143 18.8221C17.0099 18.8221 19.3424 16.4795 19.3424 13.6001C19.3424 12.4901 18.9957 11.4598 18.4054 10.6128L17.1514 11.8722C17.4426 12.3817 17.6092 12.9717 17.6092 13.6001C17.6092 15.5198 16.0544 17.0814 14.143 17.0814C13.5173 17.0814 12.9298 16.9141 12.4226 16.6216L11.1686 17.8811ZM14.1427 6.92659C15.464 6.92659 16.7409 7.24344 17.9338 7.74409L16.6546 9.02882C15.9096 8.61429 15.0533 8.37813 14.143 8.37813C11.2761 8.37813 8.94359 10.7208 8.94359 13.6001C8.94359 14.5143 9.17874 15.3745 9.59147 16.1227L7.72035 18.0019C5.43954 16.4465 3.71564 14.5064 2.97041 13.5985C4.31822 11.953 8.86767 6.92659 14.1427 6.92659ZM14.143 10.1188C14.568 10.1188 14.9753 10.196 15.3519 10.3372L10.8942 14.8143C10.7536 14.4361 10.6768 14.0269 10.6768 13.6001C10.6768 11.6805 12.2317 10.1188 14.143 10.1188Z" fill="#1B1B1B" stroke="#1B1B1B" stroke-width="0.4" stroke-linecap="round"/>
</svg>
