<svg width="15" height="13" viewBox="0 0 15 13" fill="none" xmlns="http://www.w3.org/2000/svg">
<path fill-rule="evenodd" clip-rule="evenodd" d="M11.1869 3.81575L10.5564 4.44893C11.8086 5.24732 12.7605 6.31614 13.1575 6.79986C12.4836 7.62259 10.2089 10.1358 7.57137 10.1358C6.81392 10.1358 6.08565 9.92756 5.41643 9.6113L4.76684 10.2637C5.61076 10.7026 6.56001 11.0062 7.57137 11.0062C11.1444 11.0062 13.9419 7.21759 14.0593 7.05643C14.1707 6.90342 14.1707 6.6957 14.0593 6.54282C13.9863 6.44246 12.8759 4.93824 11.1869 3.81575ZM1.76704 12.447C1.65064 12.5278 1.48982 12.5162 1.38619 12.4121C1.26954 12.295 1.26954 12.105 1.38619 11.9879L3.73301 9.63085C2.16963 8.52932 1.15311 7.15218 1.0834 7.05631C0.9722 6.90327 0.9722 6.6957 1.0834 6.54266C1.20069 6.38151 3.99838 2.59297 7.57137 2.59297C8.48385 2.59297 9.34575 2.84006 10.1254 3.21071L12.7368 0.587868C12.8535 0.470711 13.0426 0.470711 13.1593 0.587868C13.2541 0.683121 13.2718 0.826492 13.2125 0.939738C13.1978 0.949897 13.1839 0.961508 13.1709 0.974587L1.82024 12.3746C1.79843 12.3965 1.7807 12.4209 1.76704 12.447ZM6.08428 8.94054C6.50596 9.23698 7.01887 9.41107 7.5715 9.41107C9.00494 9.41107 10.1712 8.23974 10.1712 6.80006C10.1712 6.24504 9.99786 5.7299 9.70271 5.30638L9.0757 5.93612C9.2213 6.19085 9.30461 6.48587 9.30461 6.80006C9.30461 7.75988 8.52718 8.54072 7.5715 8.54072C7.25865 8.54072 6.96491 8.45704 6.71129 8.31081L6.08428 8.94054ZM7.57137 3.46329C8.23202 3.46329 8.87046 3.62172 9.46689 3.87204L8.8273 4.51441C8.45482 4.30715 8.02663 4.18906 7.5715 4.18906C6.13805 4.18906 4.9718 5.36038 4.9718 6.80006C4.9718 7.25717 5.08937 7.68723 5.29573 8.06133L4.36018 9.00095C3.21977 8.22323 2.35782 7.2532 1.9852 6.79927C2.65911 5.97651 4.93383 3.46329 7.57137 3.46329ZM7.5715 5.05941C7.78398 5.05941 7.98766 5.09802 8.17594 5.16861L5.9471 7.40713C5.87681 7.21804 5.83838 7.01347 5.83838 6.80006C5.83838 5.84025 6.61584 5.05941 7.5715 5.05941Z" fill="white" stroke="white" stroke-width="0.2" stroke-linecap="round"/>
</svg>
