<svg width="22" height="16" viewBox="0 0 22 16" fill="none" xmlns="http://www.w3.org/2000/svg">
<path d="M21.8602 7.57185C21.6636 7.303 16.9808 0.98877 10.9999 0.98877C5.01902 0.98877 0.33593 7.303 0.139606 7.5716C-0.0465352 7.82666 -0.0465352 8.1726 0.139606 8.42766C0.33593 8.69652 5.01902 15.0107 10.9999 15.0107C16.9808 15.0107 21.6636 8.69648 21.8602 8.42788C22.0466 8.17286 22.0466 7.82666 21.8602 7.57185ZM10.9999 13.5602C6.59434 13.5602 2.77867 9.36933 1.64914 7.99926C2.7772 6.628 6.58489 2.43931 10.9999 2.43931C15.4052 2.43931 19.2206 6.62946 20.3506 8.00025C19.2226 9.37147 15.4149 13.5602 10.9999 13.5602Z" fill="#A8ABC1"/>
<path d="M11.0001 3.64844C8.60064 3.64844 6.64844 5.60064 6.64844 8.00011C6.64844 10.3996 8.60064 12.3518 11.0001 12.3518C13.3996 12.3518 15.3518 10.3996 15.3518 8.00011C15.3518 5.60064 13.3996 3.64844 11.0001 3.64844ZM11.0001 10.9012C9.40037 10.9012 8.09902 9.59979 8.09902 8.00011C8.09902 6.40042 9.40042 5.09902 11.0001 5.09902C12.5998 5.09902 13.9012 6.40042 13.9012 8.00011C13.9012 9.59979 12.5998 10.9012 11.0001 10.9012Z" fill="#A8ABC1"/>
</svg>
