<svg width="20" height="20" viewBox="0 0 20 20" fill="none" xmlns="http://www.w3.org/2000/svg">
<path d="M6.66772 3.32975V13.3298C6.66772 13.7718 6.84332 14.1957 7.15588 14.5083C7.46844 14.8208 7.89236 14.9964 8.33439 14.9964H15.0011C15.4431 14.9964 15.867 14.8208 16.1796 14.5083C16.4921 14.1957 16.6677 13.7718 16.6677 13.3298V6.03142C16.6677 5.80939 16.6233 5.5896 16.5372 5.38496C16.451 5.18032 16.3248 4.99495 16.1661 4.83975L13.4036 2.13809C13.0922 1.83363 12.674 1.66314 12.2386 1.66309H8.33439C7.89236 1.66309 7.46844 1.83868 7.15588 2.15124C6.84332 2.4638 6.66772 2.88773 6.66772 3.32975V3.32975Z" stroke="#A9ADBD" stroke-width="1.66667" stroke-linecap="round" stroke-linejoin="round"/>
<path d="M13.3341 14.9987V16.6654C13.3341 17.1074 13.1585 17.5313 12.846 17.8439C12.5334 18.1564 12.1095 18.332 11.6674 18.332H5.00077C4.55875 18.332 4.13482 18.1564 3.82226 17.8439C3.5097 17.5313 3.33411 17.1074 3.33411 16.6654V7.4987C3.33411 7.05667 3.5097 6.63275 3.82226 6.32019C4.13482 6.00763 4.55875 5.83203 5.00077 5.83203H6.66744" stroke="#A9ADBD" stroke-width="1.66667" stroke-linecap="round" stroke-linejoin="round"/>
</svg>
