<svg width="47" height="47" viewBox="0 0 47 47" fill="none" xmlns="http://www.w3.org/2000/svg">
<path d="M23.5 0C10.5212 0 0 10.5212 0 23.5C0 36.4788 10.5212 47 23.5 47C36.4788 47 47 36.4788 47 23.5C47 10.5212 36.4788 0 23.5 0Z" fill="#40B3E0"/>
<path d="M34.9348 13.518L30.7373 34.6807C30.7373 34.6807 30.1504 36.1483 28.536 35.4439L18.85 28.0179L15.3279 26.3156L9.39897 24.3196C9.39897 24.3196 8.48908 23.9968 8.40096 23.2924C8.31283 22.5879 9.42835 22.2064 9.42835 22.2064L32.9974 12.9606C32.9974 12.9606 34.9347 12.1095 34.9347 13.5184" fill="white"/>
<path d="M18.1054 34.443C18.1054 34.443 17.8227 34.4166 17.4702 33.3011C17.1182 32.1858 15.3276 26.3155 15.3276 26.3155L29.5631 17.2754C29.5631 17.2754 30.3851 16.7764 30.3557 17.2754C30.3557 17.2754 30.5024 17.3635 30.062 17.7744C29.6219 18.1854 18.8793 27.8419 18.8793 27.8419" fill="#D2E5F1"/>
<path d="M22.5637 30.8652L18.7326 34.3582C18.7326 34.3582 18.433 34.5855 18.1055 34.443L18.8391 27.9548" fill="#B5CFE4"/>
</svg>
