<svg width="42" height="42" viewBox="0 0 42 42" fill="none" xmlns="http://www.w3.org/2000/svg">
<path d="M36.1337 4.67981L23.017 14.4218L25.4426 8.67416L36.1337 4.67981Z" fill="#E2761B" stroke="#E2761B" stroke-linecap="round" stroke-linejoin="round"/>
<path d="M5.85309 4.67981L18.8644 14.5141L16.5574 8.67416L5.85309 4.67981Z" fill="#E4761B" stroke="#E4761B" stroke-linecap="round" stroke-linejoin="round"/>
<path d="M31.4143 27.2617L27.9209 32.6139L35.3954 34.6704L37.5442 27.3804L31.4143 27.2617Z" fill="#E4761B" stroke="#E4761B" stroke-linecap="round" stroke-linejoin="round"/>
<path d="M4.46892 27.3804L6.60451 34.6704L14.0791 32.6139L10.5857 27.2617L4.46892 27.3804Z" fill="#E4761B" stroke="#E4761B" stroke-linecap="round" stroke-linejoin="round"/>
<path d="M13.6572 18.2186L11.5744 21.3692L18.9962 21.6988L18.7326 13.7233L13.6572 18.2186Z" fill="#E4761B" stroke="#E4761B" stroke-linecap="round" stroke-linejoin="round"/>
<path d="M28.3295 18.2182L23.1883 13.6306L23.0169 21.6984L30.4256 21.3689L28.3295 18.2182Z" fill="#E4761B" stroke="#E4761B" stroke-linecap="round" stroke-linejoin="round"/>
<path d="M14.0791 32.6141L18.5348 30.439L14.6855 27.4333L14.0791 32.6141Z" fill="#E4761B" stroke="#E4761B" stroke-linecap="round" stroke-linejoin="round"/>
<path d="M23.452 30.439L27.9209 32.6141L27.3013 27.4333L23.452 30.439Z" fill="#E4761B" stroke="#E4761B" stroke-linecap="round" stroke-linejoin="round"/>
<path d="M27.9209 32.6136L23.452 30.4385L23.8079 33.3519L23.7683 34.5778L27.9209 32.6136Z" fill="#D7C1B3" stroke="#D7C1B3" stroke-linecap="round" stroke-linejoin="round"/>
<path d="M14.0791 32.6136L18.2316 34.5778L18.2053 33.3519L18.5348 30.4385L14.0791 32.6136Z" fill="#D7C1B3" stroke="#D7C1B3" stroke-linecap="round" stroke-linejoin="round"/>
<path d="M18.2976 25.5086L14.5801 24.4145L17.2034 23.2148L18.2976 25.5086Z" fill="#233447" stroke="#233447" stroke-linecap="round" stroke-linejoin="round"/>
<path d="M23.6893 25.5086L24.7835 23.2148L27.42 24.4145L23.6893 25.5086Z" fill="#233447" stroke="#233447" stroke-linecap="round" stroke-linejoin="round"/>
<path d="M14.0791 32.614L14.7118 27.2618L10.5856 27.3805L14.0791 32.614Z" fill="#CD6116" stroke="#CD6116" stroke-linecap="round" stroke-linejoin="round"/>
<path d="M27.2881 27.2618L27.9209 32.614L31.4143 27.3805L27.2881 27.2618Z" fill="#CD6116" stroke="#CD6116" stroke-linecap="round" stroke-linejoin="round"/>
<path d="M30.4256 21.3693L23.0169 21.6988L23.7024 25.5086L24.7966 23.2148L27.4331 24.4145L30.4256 21.3693Z" fill="#CD6116" stroke="#CD6116" stroke-linecap="round" stroke-linejoin="round"/>
<path d="M14.58 24.4145L17.2165 23.2148L18.2975 25.5086L18.9962 21.6988L11.5743 21.3693L14.58 24.4145Z" fill="#CD6116" stroke="#CD6116" stroke-linecap="round" stroke-linejoin="round"/>
<path d="M11.5744 21.3693L14.6855 27.4333L14.58 24.4145L11.5744 21.3693Z" fill="#E4751F" stroke="#E4751F" stroke-linecap="round" stroke-linejoin="round"/>
<path d="M27.4331 24.4145L27.3013 27.4333L30.4256 21.3693L27.4331 24.4145Z" fill="#E4751F" stroke="#E4751F" stroke-linecap="round" stroke-linejoin="round"/>
<path d="M18.9962 21.6989L18.2975 25.5086L19.1676 30.0039L19.3653 24.0849L18.9962 21.6989Z" fill="#E4751F" stroke="#E4751F" stroke-linecap="round" stroke-linejoin="round"/>
<path d="M23.0169 21.6989L22.661 24.0717L22.8192 30.0039L23.7024 25.5086L23.0169 21.6989Z" fill="#E4751F" stroke="#E4751F" stroke-linecap="round" stroke-linejoin="round"/>
<path d="M23.7025 25.5083L22.8192 30.0036L23.452 30.4387L27.3013 27.433L27.4332 24.4142L23.7025 25.5083Z" fill="#F6851B" stroke="#F6851B" stroke-linecap="round" stroke-linejoin="round"/>
<path d="M14.5801 24.4142L14.6855 27.433L18.5349 30.4387L19.1676 30.0036L18.2976 25.5083L14.5801 24.4142Z" fill="#F6851B" stroke="#F6851B" stroke-linecap="round" stroke-linejoin="round"/>
<path d="M23.7683 34.5779L23.8079 33.3519L23.4783 33.0619H18.5085L18.2053 33.3519L18.2316 34.5779L14.0791 32.6136L15.5292 33.8001L18.4689 35.8434H23.5179L26.4708 33.8001L27.9209 32.6136L23.7683 34.5779Z" fill="#C0AD9E" stroke="#C0AD9E" stroke-linecap="round" stroke-linejoin="round"/>
<path d="M23.452 30.4391L22.8192 30.004H19.1676L18.5349 30.4391L18.2053 33.3524L18.5085 33.0624H23.4784L23.8079 33.3524L23.452 30.4391Z" fill="#161616" stroke="#161616" stroke-linecap="round" stroke-linejoin="round"/>
<path d="M36.6874 15.0546L37.8079 9.67604L36.1337 4.67981L23.452 14.0922L28.3295 18.2184L35.2241 20.2354L36.7533 18.4557L36.0941 17.9811L37.1488 17.0188L36.3314 16.386L37.386 15.5819L36.6874 15.0546Z" fill="#763D16" stroke="#763D16" stroke-linecap="round" stroke-linejoin="round"/>
<path d="M4.19207 9.67604L5.3126 15.0546L4.60073 15.5819L5.65535 16.386L4.8512 17.0188L5.90582 17.9811L5.24668 18.4557L6.76269 20.2354L13.6572 18.2184L18.5348 14.0922L5.85309 4.67981L4.19207 9.67604Z" fill="#763D16" stroke="#763D16" stroke-linecap="round" stroke-linejoin="round"/>
<path d="M35.2241 20.2353L28.3296 18.2184L30.4256 21.369L27.3013 27.4331L31.4143 27.3803H37.5443L35.2241 20.2353Z" fill="#F6851B" stroke="#F6851B" stroke-linecap="round" stroke-linejoin="round"/>
<path d="M13.6572 18.2184L6.7627 20.2353L4.46892 27.3803H10.5857L14.6855 27.4331L11.5744 21.369L13.6572 18.2184Z" fill="#F6851B" stroke="#F6851B" stroke-linecap="round" stroke-linejoin="round"/>
<path d="M23.017 21.6988L23.452 14.0924L25.4558 8.67432H16.5575L18.5349 14.0924L18.9963 21.6988L19.1545 24.098L19.1676 30.0039H22.8192L22.8456 24.098L23.017 21.6988Z" fill="#F6851B" stroke="#F6851B" stroke-linecap="round" stroke-linejoin="round"/>
</svg>
