<svg width="34" height="34" viewBox="0 0 34 34" fill="none" xmlns="http://www.w3.org/2000/svg">
<path d="M17.0013 26.2087C22.0869 26.2087 26.2096 22.0859 26.2096 17.0003C26.2096 11.9147 22.0869 7.79199 17.0013 7.79199C11.9157 7.79199 7.79297 11.9147 7.79297 17.0003C7.79297 22.0859 11.9157 26.2087 17.0013 26.2087Z" stroke="#A8ABC1" stroke-width="1.5" stroke-linecap="round" stroke-linejoin="round"/>
<path d="M27.1137 27.1147L26.9295 26.9305M26.9295 7.06884L27.1137 6.88467L26.9295 7.06884ZM6.8837 27.1147L7.06786 26.9305L6.8837 27.1147ZM16.9987 2.94634V2.83301V2.94634ZM16.9987 31.1663V31.053V31.1663ZM2.94536 16.9997H2.83203H2.94536ZM31.1654 16.9997H31.052H31.1654ZM7.06786 7.06884L6.8837 6.88467L7.06786 7.06884Z" stroke="#A8ABC1" stroke-width="2" stroke-linecap="round" stroke-linejoin="round"/>
</svg>
