<svg width="12" height="12" viewBox="0 0 12 12" fill="none" xmlns="http://www.w3.org/2000/svg">
<path d="M2.20238 7.76318L4.46738 10.0282C5.39738 10.9582 6.90738 10.9582 7.84238 10.0282L10.0374 7.83318C10.9674 6.90318 10.9674 5.39318 10.0374 4.45818L7.76738 2.19818C7.29238 1.72318 6.63738 1.46818 5.96738 1.50318L3.46738 1.62318C2.46738 1.66818 1.67238 2.46318 1.62238 3.45818L1.50238 5.95818C1.47238 6.63318 1.72738 7.28818 2.20238 7.76318Z" stroke="#1B1B1B" stroke-linecap="round" stroke-linejoin="round"/>
<path d="M4.86719 6.11328C5.55754 6.11328 6.11719 5.55364 6.11719 4.86328C6.11719 4.17293 5.55754 3.61328 4.86719 3.61328C4.17683 3.61328 3.61719 4.17293 3.61719 4.86328C3.61719 5.55364 4.17683 6.11328 4.86719 6.11328Z" stroke="#1B1B1B" stroke-linecap="round"/>
<path d="M6.61719 8.61328L8.61719 6.61328" stroke="#1B1B1B" stroke-miterlimit="10" stroke-linecap="round" stroke-linejoin="round"/>
</svg>
