<svg width="39" height="24" viewBox="0 0 39 24" fill="none" xmlns="http://www.w3.org/2000/svg">
<path d="M7.987 4.70346C14.3455 -1.50906 24.6546 -1.50906 31.013 4.70346L31.7783 5.45114C32.0962 5.76177 32.0962 6.26539 31.7783 6.57602L29.1605 9.13371C29.0015 9.28902 28.7438 9.28902 28.5848 9.13371L27.5318 8.1048C23.096 3.77079 15.9041 3.77079 11.4682 8.1048L10.3405 9.20667C10.1815 9.36199 9.9238 9.36199 9.76484 9.20667L7.14707 6.64899C6.82914 6.33836 6.82914 5.83474 7.14707 5.52411L7.987 4.70346ZM36.4268 9.99302L38.7566 12.2694C39.0746 12.58 39.0746 13.0836 38.7566 13.3942L28.2513 23.6586C27.9334 23.9692 27.4179 23.9692 27.1 23.6586C27.1 23.6586 27.1 23.6586 27.1 23.6586L19.644 16.3737C19.5645 16.296 19.4356 16.296 19.3561 16.3737H19.3561L11.9003 23.6586C11.5823 23.9692 11.0669 23.9692 10.749 23.6586C10.749 23.6586 10.749 23.6586 10.749 23.6586L0.243344 13.3941C-0.0745784 13.0835 -0.0745784 12.5799 0.243344 12.2692L2.57317 9.99289C2.89109 9.68227 3.40655 9.68227 3.72447 9.99289L11.1806 17.2779C11.2601 17.3556 11.389 17.3556 11.4684 17.2779C11.4684 17.2779 11.4684 17.2779 11.4684 17.2779L18.9242 9.99289C19.2421 9.68226 19.7576 9.68225 20.0755 9.99287C20.0755 9.99287 20.0755 9.99288 20.0755 9.99288L27.5317 17.2779C27.6111 17.3556 27.74 17.3556 27.8195 17.2779L35.2755 9.99302C35.5934 9.6824 36.1089 9.6824 36.4268 9.99302Z" fill="#3B99FC"/>
</svg>
