<svg width="24" height="24" viewBox="0 0 24 24" fill="none" xmlns="http://www.w3.org/2000/svg">
<path d="M21.8134 3.94C20.2734 7.78 16.4134 13 13.1834 15.59L11.2134 17.17C10.9634 17.35 10.7134 17.51 10.4334 17.62C10.4334 17.44 10.4234 17.24 10.3934 17.05C10.2834 16.21 9.90344 15.43 9.23344 14.76C8.55344 14.08 7.72344 13.68 6.87344 13.57C6.67344 13.56 6.47344 13.54 6.27344 13.56C6.38344 13.25 6.55344 12.96 6.76344 12.72L8.32344 10.75C10.9034 7.52 16.1434 3.64 19.9734 2.11C20.5634 1.89 21.1334 2.05 21.4934 2.42C21.8734 2.79 22.0534 3.36 21.8134 3.94Z" stroke="white" stroke-width="2" stroke-linecap="round" stroke-linejoin="round"/>
<path d="M10.4293 17.6201C10.4293 18.7201 10.0093 19.77 9.2193 20.57C8.6093 21.18 7.7793 21.6001 6.7893 21.7301L4.3293 22.0001C2.9893 22.1501 1.8393 21.01 1.9993 19.65L2.2693 17.1901C2.5093 15.0001 4.3393 13.6001 6.2793 13.5601C6.4793 13.5501 6.6893 13.56 6.8793 13.57C7.7293 13.68 8.5593 14.0701 9.2393 14.7601C9.9093 15.4301 10.2893 16.21 10.3993 17.05C10.4093 17.24 10.4293 17.4301 10.4293 17.6201Z" stroke="white" stroke-width="2" stroke-linecap="round" stroke-linejoin="round"/>
<path d="M14.2378 14.47C14.2378 11.86 12.1178 9.73999 9.50781 9.73999" stroke="white" stroke-width="2" stroke-linecap="round" stroke-linejoin="round"/>
</svg>
