<svg width="12" height="14" viewBox="0 0 12 14" fill="none" xmlns="http://www.w3.org/2000/svg">
<path d="M3.67188 2.33073V9.33073C3.67188 9.64015 3.79479 9.93689 4.01358 10.1557C4.23238 10.3745 4.52912 10.4974 4.83854 10.4974H9.50521C9.81463 10.4974 10.1114 10.3745 10.3302 10.1557C10.549 9.93689 10.6719 9.64015 10.6719 9.33073V4.2219C10.6719 4.06647 10.6408 3.91262 10.5805 3.76937C10.5202 3.62612 10.4319 3.49637 10.3207 3.38773L8.38696 1.49656C8.169 1.28345 7.87629 1.1641 7.57146 1.16406H4.83854C4.52912 1.16406 4.23238 1.28698 4.01358 1.50577C3.79479 1.72456 3.67188 2.02131 3.67188 2.33073V2.33073Z" stroke="#1B1B1B" stroke-width="1.16667" stroke-linecap="round" stroke-linejoin="round"/>
<path d="M8.33594 10.4987V11.6654C8.33594 11.9748 8.21302 12.2715 7.99423 12.4903C7.77544 12.7091 7.47869 12.832 7.16927 12.832H2.5026C2.19318 12.832 1.89644 12.7091 1.67765 12.4903C1.45885 12.2715 1.33594 11.9748 1.33594 11.6654V5.2487C1.33594 4.93928 1.45885 4.64253 1.67765 4.42374C1.89644 4.20495 2.19318 4.08203 2.5026 4.08203H3.66927" stroke="#1B1B1B" stroke-width="1.16667" stroke-linecap="round" stroke-linejoin="round"/>
</svg>
