<svg width="40" height="35" viewBox="0 0 40 35" fill="none" xmlns="http://www.w3.org/2000/svg">
<path d="M17.9267 9.3604C17.8998 9.18041 17.8499 9.00667 17.7873 8.83592C17.69 8.57039 17.5431 8.3353 17.369 8.11384C17.1813 7.87475 16.9421 7.69861 16.6898 7.53668C16.6487 7.53247 16.6146 7.51224 16.5799 7.49139C15.9783 7.13044 15.3789 6.76571 14.7783 6.40316C13.9576 5.90777 13.138 5.40996 12.316 4.91635C11.9761 4.71214 11.6041 4.6019 11.2095 4.55802C10.7529 4.50731 10.3175 4.57524 9.89961 4.76202C9.72856 4.8384 9.57053 4.9396 9.40911 5.03379C8.57791 5.51838 7.74551 6.00036 6.9139 6.48434C6.36544 6.80359 5.80978 7.1114 5.26916 7.44329C4.55125 7.88379 4.11109 8.51627 4.01162 9.36679C4.00158 9.45338 3.99617 9.53936 3.99617 9.62611C3.99638 11.3795 3.98355 13.1328 4.00158 14.886C4.01082 15.7826 4.41208 16.4959 5.17571 16.9763C5.99005 17.4885 6.82086 17.9745 7.64384 18.4727C8.29255 18.8657 8.94148 19.258 9.59081 19.6498C10.0767 19.9429 10.6095 20.0665 11.1736 20.0351C11.6051 20.0111 11.9976 19.8632 12.368 19.6372C13.3774 19.021 14.3951 18.4186 15.4092 17.81C15.4575 17.7811 15.5041 17.7476 15.5628 17.7421C15.8494 17.5686 16.1355 17.3949 16.4223 17.2222C16.9152 16.9254 17.4065 16.6262 17.9022 16.3342C18.1655 16.179 18.437 16.0378 18.7047 15.89C19.272 15.577 19.8399 15.265 20.4064 14.9502C21.2033 14.5072 22.0052 14.0734 22.7864 13.6024C23.5609 13.1352 24.3479 12.688 25.1276 12.2288C25.8461 11.8058 26.5606 11.3759 27.2799 10.9548C27.5726 10.7835 27.8581 10.5967 28.1898 10.5005C28.3563 10.4522 28.5246 10.4161 28.6941 10.3831C28.7267 10.3664 28.7652 10.3871 28.7975 10.3674C28.8298 10.3658 28.8621 10.3642 28.8944 10.3626C29.0141 10.3526 29.1341 10.3518 29.2538 10.363C29.7772 10.3971 30.2252 10.6276 30.6643 10.8903C31.1935 11.2071 31.7301 11.5118 32.2634 11.8218C33.1147 12.3168 33.9652 12.813 34.8175 13.307C35.5544 13.7345 36.296 14.1545 37.0301 14.5868C37.6588 14.9568 38.3123 15.2866 38.912 15.7017C39.5003 16.1087 39.8514 16.6817 39.9631 17.3939C39.9686 17.4298 39.9781 17.4653 39.9858 17.5009C40.0006 17.5348 39.9828 17.5732 40 17.6068C40 17.6867 40 17.767 40 17.8469C40 21.1025 39.9997 24.358 40 27.6138C40 28.409 39.7098 29.0769 39.1191 29.6105C38.8957 29.8125 38.6265 29.9456 38.3689 30.0966C37.8895 30.3774 37.4104 30.6584 36.9301 30.9373C36.5443 31.1612 36.1557 31.3811 35.7695 31.6052C35.1975 31.9373 34.628 32.2731 34.0557 32.6046C33.412 32.9776 32.7655 33.3463 32.1218 33.719C31.5557 34.0474 30.9917 34.3801 30.4255 34.7092C30.2769 34.7956 30.1215 34.8688 29.9603 34.9287C29.8415 34.9727 29.7206 34.9979 29.591 34.9958C29.2267 34.9899 28.8618 34.9789 28.4987 34.9985C28.1963 35.0148 27.9492 34.8925 27.703 34.7535C27.3849 34.5742 27.0704 34.3881 26.7544 34.2046C26.4464 34.0256 26.1387 33.8457 25.831 33.6664C25.5236 33.4872 25.2162 33.3076 24.9082 33.1292C24.5975 32.949 24.2852 32.7707 23.9738 32.5911C23.6575 32.4081 23.3415 32.2252 23.0258 32.0416C22.7178 31.8626 22.4107 31.6821 22.1024 31.5035C21.7381 31.2922 21.3725 31.0828 21.0082 30.8712C20.6242 30.6486 20.2408 30.425 19.8576 30.2012C19.6123 30.0579 19.3585 29.9287 19.1293 29.7596C18.7135 29.4524 18.4099 29.0606 18.2247 28.576C18.1531 28.3884 18.1078 28.1972 18.0831 27.9994C18.0656 27.9598 18.0885 27.9152 18.0676 27.8758C18.0672 26.7039 18.068 25.5317 18.0647 24.3598C18.0644 24.2648 18.0947 24.2156 18.1775 24.168C18.8387 23.7888 19.4958 23.4023 20.1553 23.02C20.6907 22.7101 21.2276 22.402 21.7639 22.0935C21.8479 22.045 21.9325 21.9976 22.0393 21.9367C22.0393 22.3466 22.0393 22.7384 22.0393 23.1301C22.0753 23.1738 22.0621 23.2258 22.0624 23.2744C22.0633 23.9625 22.0559 24.6504 22.0652 25.3383C22.0732 25.9226 22.2787 26.4389 22.6427 26.8961C22.9012 27.2208 23.2473 27.4263 23.5981 27.6286C24.2316 27.9942 24.8633 28.3635 25.4963 28.7304C26.2618 29.1744 27.0221 29.628 27.7947 30.06C28.1113 30.2372 28.4624 30.3239 28.8267 30.362C29.2147 30.4023 29.5849 30.3432 29.9486 30.2159C30.0757 30.1717 30.195 30.1114 30.3098 30.0431C31.284 29.4656 32.2563 28.8851 33.2292 28.3054C33.7372 28.0028 34.2557 27.7172 34.7486 27.3912C35.3978 26.9619 35.7732 26.3518 35.8781 25.5806C35.896 25.4493 35.9068 25.3159 35.9064 25.1815C35.9049 23.4884 35.9095 21.7953 35.9034 20.1021C35.9012 19.3893 35.6449 18.7722 35.1424 18.2627C34.9314 18.0489 34.672 17.9016 34.4138 17.7531C33.6498 17.313 32.8889 16.8673 32.1261 16.4247C31.4877 16.0544 30.8597 15.6638 30.2083 15.3177C29.4024 14.8898 28.568 14.8393 27.7381 15.2644C27.3846 15.4456 27.0486 15.6602 26.7052 15.8598C25.6569 16.4692 24.6082 17.0785 23.5606 17.6889C22.6282 18.2319 21.6938 18.7713 20.7621 19.3155C20.7208 19.3395 20.6759 19.3478 20.6328 19.3632C20.3568 19.5203 20.0805 19.6762 19.8052 19.8346C19.4268 20.0523 19.0491 20.2713 18.6712 20.4905C18.045 20.8537 17.4187 21.2175 16.7927 21.5812C16.1871 21.933 15.5817 22.2854 14.9761 22.6375C14.3995 22.9727 13.8228 23.3079 13.2463 23.6434C12.8952 23.8478 12.5496 24.0628 12.1915 24.2544C11.9049 24.4075 11.5927 24.4979 11.2678 24.5367C11.2341 24.5517 11.1959 24.5336 11.1626 24.5514C11.0974 24.5529 11.0322 24.5551 10.967 24.5569C10.9342 24.5659 10.9013 24.5665 10.8686 24.5566C10.8102 24.5548 10.7517 24.5529 10.6933 24.5514C10.66 24.5333 10.6215 24.552 10.5878 24.5363C10.5018 24.5213 10.4156 24.5065 10.3295 24.4914C10.1994 24.4927 10.0841 24.4376 9.96801 24.3903C9.64173 24.2574 9.35096 24.0585 9.04776 23.8835C8.02966 23.2968 7.01436 22.7052 5.99768 22.1157C5.26694 21.6919 4.53642 21.2679 3.80608 20.8435C2.96324 20.3537 2.11459 19.8737 1.27696 19.3752C0.637664 18.9945 0.212955 18.4435 0.0412928 17.7101C0.0168312 17.6055 0.0104312 17.4995 0.0104312 17.3927C0.00541578 17.3482 0.0210462 17.3021 0 17.2587C0 13.8922 0 10.5256 0 7.1591C0.0210462 7.12724 0.00560039 7.09175 0.0104312 7.0583C0.0176312 6.64947 0.174462 6.29194 0.394248 5.95827C0.606802 5.63582 0.901573 5.40894 1.23665 5.22035C1.87416 4.86165 2.50121 4.48428 3.13287 4.11552C4.08482 3.55958 5.03614 3.00266 5.98765 2.44611C7.24157 1.71262 8.49649 0.979752 9.74982 0.244634C9.92628 0.141036 10.119 0.0728929 10.3145 0.0135754C10.3566 0.000752497 10.4001 0.000352968 10.4436 0.000352968C10.878 0.000352968 11.3126 -0.000662717 11.7469 0.000751799C11.9635 0.00155131 12.147 0.105764 12.3248 0.209178C13.0961 0.657087 13.8647 1.10979 14.6333 1.56232C15.0823 1.82665 15.5323 2.08981 15.9821 2.35294C16.0142 2.37157 16.0463 2.38919 16.0617 2.42566C16.4004 2.62748 16.7381 2.83089 17.0778 3.03092C17.8719 3.49907 18.6662 3.96663 19.4617 4.43237C19.9023 4.69028 20.3522 4.93299 20.7787 5.21414C21.3181 5.57007 21.6698 6.06909 21.8442 6.69074C21.8781 6.8114 21.8941 6.93705 21.9184 7.0603C21.9356 7.1008 21.9141 7.14588 21.9335 7.18597C21.9332 7.2559 21.9325 7.32586 21.9325 7.39578C21.9325 8.52368 21.9319 9.65157 21.9338 10.7797C21.9341 10.854 21.915 10.8935 21.8452 10.9328C21.4848 11.1356 21.1304 11.349 20.7725 11.5561C20.4144 11.7633 20.0541 11.9661 19.6962 12.1731C19.1251 12.5036 18.5551 12.8359 17.9846 13.1675C17.969 13.1717 17.9583 13.1657 17.957 13.1499C17.9542 13.12 17.9558 13.09 17.9558 13.0599C17.9558 11.9228 17.9558 10.7857 17.9554 9.64856C17.9554 9.61248 17.9638 9.57522 17.9467 9.54016C17.9453 9.51448 17.9437 9.48884 17.9423 9.46338C17.9257 9.43072 17.9469 9.39225 17.9267 9.3604Z" fill="#8046E3"/>
</svg>
